<svg width="20" height="20" viewBox="0 0 52 52" fill="none" xmlns="http://www.w3.org/2000/svg"><path d="M26.084 7C36.543 7.03 45.006 15.54 45 26.015 44.99 36.513 36.49 45.01 26.007 45 15.53 44.99 7.05 36.463 7.067 25.962 7.082 15.47 15.607 6.97 26.083 7m-.023 2.964c-8.82-.014-16.019 7.172-16.036 16-.016 8.856 7.172 16.075 16.008 16.075l.004.004c8.816-.004 16.001-7.197 16.008-16.028.003-8.835-7.17-16.04-15.984-16.051m-7.18 9c.133.013 3.522-.221 4.974.318l.003-.003c2.273.845 3.718 2.478 4.284 4.828.622 2.592.167 4.983-1.68 6.961-3.39 3.635-9.22 2.277-10.86-2.498-.359-1.04-.463-1.901-.373-3.222h9.376c-.044-.919-.443-1.6-1.102-2.136-.576-.466-1.178-.687-1.998-.704-.703-.014-1.898-.024-2.631-.024 0-1.197.007-2.317.007-3.52m18.007 14.079h-3.685v-7.752h3.685zm-18.114-5.281c.1 1.495 1.54 2.424 2.972 2.424 1.265.004 2.851-.929 2.861-2.424zm18.11-5.348h-3.68v-3.47h3.68z" fill="#003473"/></svg>